<?xml version="1.0" ?><!-- Uploaded to: SVG Repo, www.svgrepo.com, Generator: SVG Repo Mixer Tools -->
<svg fill="#000000" width="800px" height="800px" viewBox="0 0 128 128" data-name="Layer 1" id="Layer_1" xmlns="http://www.w3.org/2000/svg"><title/><circle cx="13.316" cy="67.539" r="1.778"/><path d="M126.514,52.117a1,1,0,0,0,.024-1.928,22.768,22.768,0,0,0-6.348-.91A22.468,22.468,0,0,0,98.559,65.609l-1-1A64.638,64.638,0,0,0,84.4,54.482a8.075,8.075,0,0,1,6.3-3.013.963.963,0,0,1,.124,0,1,1,0,0,0,1.045-1.386,10.114,10.114,0,0,0-18.234-.743.977.977,0,0,0-.041.147A64.336,64.336,0,0,0,63.3,46.769a.974.974,0,0,0,.035-.287c-.006-.057,0-.119,0-.182A8.48,8.48,0,0,1,65.1,41.071a1,1,0,0,0-.187-1.407,22.934,22.934,0,0,0-34.922,9.191.99.99,0,0,0-.01.742A64.011,64.011,0,0,0,6.33,64.61L1.89,69.05A3.984,3.984,0,0,0,.75,72.03c.02.14.03.28.05.39l.005.021C.78,72.3.766,72.167.754,72.03a1,1,0,0,1,.288-.8l.39-.39a72.928,72.928,0,0,1,8.217-7.072l-.068.068a5.273,5.273,0,0,0-1.5,3.25c-.01.15-.02.3-.02.45a5.2,5.2,0,0,0,.18,1.293c-2,1.315-3.96,2.726-5.825,4.218a1,1,0,0,1-1.6-.58A3.949,3.949,0,0,0,1.89,74.58l4.44,4.45A64.236,64.236,0,0,0,31.471,94.592a1,1,0,0,0-.055.435,9.84,9.84,0,0,0,9.8,8.792,9.732,9.732,0,0,0,5.271-1.539,1,1,0,0,0-.075-1.727,7.833,7.833,0,0,1-3.233-3.238,64.869,64.869,0,0,0,8.758.6,64.191,64.191,0,0,0,30.77-7.787.991.991,0,0,0,.505.458,9.983,9.983,0,0,0,3.655.7,9.8,9.8,0,0,0,5.266-1.526,1,1,0,0,0-.073-1.73A7.751,7.751,0,0,1,89.5,85.852a64.192,64.192,0,0,0,8.06-6.822l1-1A22.487,22.487,0,0,0,120.19,94.34a22.257,22.257,0,0,0,6.052-.837,1,1,0,0,0,0-1.926,20.445,20.445,0,0,1,.276-39.459ZM15.662,65.284c.02.02.041.039.06.06a3.244,3.244,0,0,1,.422.581c.019.033.036.066.054.1a3.252,3.252,0,0,1,.265.665c.009.032.013.064.021.1a3.251,3.251,0,0,1-3.8,3.951c-.093-.019-.178-.054-.268-.08a3.289,3.289,0,0,1-.325-.1,3.184,3.184,0,0,1-.35-.182c-.061-.034-.125-.062-.183-.1a3.251,3.251,0,0,1-.387-.3c-.025-.022-.052-.04-.076-.063a3.273,3.273,0,0,1-.378-.43l-.009-.011a3.266,3.266,0,0,1-.619-1.7c-.005-.074-.022-.145-.022-.22,0-.11.01-.21.02-.34a3.252,3.252,0,0,1,.88-1.91.571.571,0,0,1,.08-.07,2.785,2.785,0,0,1,.81-.58,3.271,3.271,0,0,1,3.226.16h0A3.194,3.194,0,0,1,15.662,65.284Zm19.161,7.6a1,1,0,0,1-1-1,9.65,9.65,0,0,1,9.639-9.64,1,1,0,0,1,1,1A9.65,9.65,0,0,1,34.822,72.889ZM103.14,71.54a3.741,3.741,0,0,1-.263,1.705,1,1,0,0,1-1.56.4,78.707,78.707,0,0,0-84.274-9.8A5.08,5.08,0,0,0,15.53,62.78a5.224,5.224,0,0,0-4.58.07c-.038.018-.071.044-.108.064a71.523,71.523,0,0,1,92,7.909,1,1,0,0,1,.293.708Z"/></svg>